<?xml version="1.0" encoding="UTF-8"?>
<svg id="Guías" xmlns="http://www.w3.org/2000/svg" viewBox="0 0 113.59 686.48">
  <defs>
    <style>
      .cls-1, .cls-2 {
        fill: #fff;
      }

      .cls-3, .cls-4 {
        fill: none;
        stroke: #fff;
        stroke-miterlimit: 10;
      }

      .cls-4 {
        stroke-width: .75px;
      }

      .cls-2 {
        font-family: Abel-Regular, Abel;
        font-size: 12px;
      }
    </style>
  </defs>
  <rect class="cls-1" x="44.99" y="402.01" width="15.71" height="9.83"/>
  <rect class="cls-1" x="44.99" y="417.28" width="15.71" height="9.83"/>
  <rect class="cls-1" x="44.99" y="432.56" width="15.71" height="9.83"/>
  <rect class="cls-1" x="44.99" y="447.83" width="15.71" height="9.83"/>
  <rect class="cls-1" x="44.99" y="463.11" width="15.71" height="9.83"/>
  <rect class="cls-1" x="44.99" y="478.38" width="15.71" height="9.83"/>
  <rect class="cls-1" x="44.99" y="493.65" width="15.71" height="9.83"/>
  <rect class="cls-1" x="44.99" y="508.93" width="15.71" height="9.83"/>
  <rect class="cls-1" x="44.99" y="524.2" width="15.71" height="9.83"/>
  <g>
    <circle class="cls-1" cx="102.2" cy="48.52" r="10.9"/>
    <circle class="cls-3" cx="102.2" cy="73.4" r="10.9"/>
    <circle class="cls-3" cx="102.2" cy="98.28" r="10.9"/>
    <circle class="cls-3" cx="102.2" cy="123.16" r="10.9"/>
    <circle class="cls-3" cx="102.2" cy="148.04" r="10.9"/>
    <circle class="cls-3" cx="102.2" cy="172.91" r="10.9"/>
  </g>
  <text class="cls-2" transform="translate(0 682.94)"><tspan x="0" y="0">001 - 00011</tspan></text>
  <text class="cls-2" transform="translate(0 10.2)"><tspan x="0" y="0">001 - 00011</tspan></text>
  <line class="cls-4" x1="75.05" y1="45.7" x2="75.05" y2="534.07"/>
</svg>