<?xml version="1.0" encoding="utf-8"?>
<!-- Generator: Adobe Illustrator 27.3.1, SVG Export Plug-In . SVG Version: 6.00 Build 0)  -->
<svg version="1.1" id="Guías" xmlns="http://www.w3.org/2000/svg" xmlns:xlink="http://www.w3.org/1999/xlink" x="0px" y="0px"
	 viewBox="0 0 924.4 574.7" style="enable-background:new 0 0 924.4 574.7;" xml:space="preserve">
<style type="text/css">
	.st0{display:none;}
	.st1{display:none;fill:#FB00FF;}
	.st2{enable-background:new    ;}
	.st3{fill:#FFFFFF;}
	.st4{fill:none;stroke:#FFFFFF;stroke-width:2;stroke-miterlimit:10;}
	.st5{fill:#FFFFFF;stroke:#FFFFFF;stroke-miterlimit:10;}
	.st6{display:none;fill:#FFFFFF;}
</style>
<rect x="-186.2" y="-185.4" class="st0" width="1148.8" height="1103.5"/>
<rect x="212.6" y="-161.5" transform="matrix(6.123234e-17 -1 1 6.123234e-17 187.5633 727.8325)" class="st1" width="490.2" height="863.2"/>
<g class="st2">
	<path class="st3" d="M523.8,551.2c-1.9-1.7-2.8-4.1-2.8-7.3c0-3.1,0.9-5.5,2.8-7.2s4.8-2.6,8.8-2.6c4,0,6.9,0.9,8.8,2.6
		s2.8,4.1,2.8,7.2c0,3.1-0.9,5.6-2.8,7.3s-4.8,2.6-8.8,2.6C528.6,553.8,525.6,552.9,523.8,551.2z M536.7,547.3
		c0.8-0.7,1.3-1.9,1.3-3.4c0-1.5-0.4-2.7-1.3-3.4c-0.8-0.7-2.2-1.1-4.2-1.1c-1.9,0-3.3,0.4-4.1,1.1c-0.8,0.7-1.3,1.9-1.3,3.4
		c0,1.5,0.4,2.7,1.3,3.4c0.8,0.7,2.2,1.1,4.1,1.1C534.4,548.4,535.8,548.1,536.7,547.3z M534,533.1h-3.3l0.6-4h4.8L534,533.1z"/>
	<path class="st3" d="M566,544.7c-0.7,1-2,1.8-3.8,2.3c0.2,0.3,0.4,0.5,0.4,0.7l4.2,5.8h-7.1c-0.8-1.4-2-3.4-3.6-6h-3.8v6h-6.1
		c0.1-3.4,0.2-6.5,0.2-9.4c0-2.9-0.1-6.1-0.2-9.4h6.1v0h5.3c3.5,0,5.9,0.6,7.3,1.7s2.1,2.7,2.1,4.6
		C567.1,542.4,566.7,543.7,566,544.7z M552.3,539.6v3h3.5c1.5,0,2.6,0,3.3-0.1s1.3-0.2,1.6-0.5c0.3-0.2,0.4-0.5,0.4-0.9
		c0-0.4-0.1-0.7-0.4-0.9c-0.3-0.2-0.8-0.4-1.6-0.4c-0.8-0.1-1.9-0.1-3.4-0.1H552.3z"/>
	<path class="st3" d="M590.3,547.9c0,1.2-0.3,2.2-0.8,3s-1.5,1.5-2.9,1.9s-3.3,0.7-5.8,0.7h-11.7c0.1-3.4,0.2-6.5,0.2-9.4
		c0-2.9-0.1-6.1-0.2-9.4h6.1v0h5.5c2.1,0,3.8,0.2,5.1,0.5c1.2,0.4,2.1,0.9,2.6,1.5c0.5,0.7,0.8,1.5,0.8,2.6c0,1.1-0.4,2-1.1,2.8
		c-0.7,0.8-2,1.5-3.8,2C588.3,544.1,590.3,545.4,590.3,547.9z M575.3,539.4v2.4h5c1.1,0,1.8-0.1,2.2-0.3s0.6-0.5,0.6-1
		c0-0.4-0.2-0.7-0.7-0.8c-0.4-0.2-1.2-0.2-2.2-0.2H575.3z M580.3,548.7c0.9,0,1.6,0,2.1-0.1c0.5-0.1,0.8-0.2,1-0.4s0.3-0.5,0.3-0.8
		c0-0.4-0.2-0.8-0.7-1s-1.4-0.3-2.7-0.3h-5v2.6H580.3z"/>
	<path class="st3" d="M607.5,539.8c-2.1-0.1-3.6-0.2-4.6-0.2v8.9c1,0,2.5-0.1,4.6-0.2v5.2h-15.1v-5.2c2,0.1,3.5,0.2,4.5,0.2v-8.9
		c-1,0-2.6,0.1-4.5,0.2v-5.2h15.1V539.8z"/>
</g>
<g class="st2">
	<path class="st3" d="M631.9,540.1c-2.7-0.1-5.4-0.1-7.9-0.2v13.6h-6.5v-13.6c-2.6,0-5.2,0.1-7.9,0.2v-5.5h22.3V540.1z"/>
</g>
<g class="st2">
	<path class="st3" d="M648.3,553.5c-0.3-1-0.8-2.2-1.3-3.7h-8.3l-1.3,3.7h-6.5l7.3-18.9h9.6l7.3,18.9H648.3z M645.5,545.7
		c-0.7-1.8-1.3-3.6-2-5.5l-0.6-1.7c-0.6,1.6-1.5,4-2.7,7.1H645.5z"/>
</g>
<g class="st2">
	<path class="st3" d="M681.9,539.5h-14.1v2.7c0.9,0,2.2,0,4,0c3.1,0,6.2-0.1,9.3-0.2v5.1c-3.2-0.1-6.5-0.2-10-0.2
		c-1.5,0-2.6,0-3.3,0v6.5h-6.1c0.1-3.4,0.2-6.5,0.2-9.4c0-2.9-0.1-6.1-0.2-9.4h20.3V539.5z"/>
</g>
<g class="st2">
	<path class="st3" d="M707.8,534.6l2,18.9h-6.7l-0.4-13.5l-2.6,13.5h-6.8l-2.7-13.4l-0.4,13.4h-6.7l2-18.9h8.8l2.3,12.3l2-12.3
		H707.8z"/>
	<path class="st3" d="M732.5,535.5c1.5,0.8,2.7,1.8,3.5,3.2c0.8,1.4,1.3,2.9,1.3,4.7c0,3.5-1,6.1-2.9,7.8s-4.5,2.6-7.8,2.6
		c-4,0-7.1-1-9.4-3c1-1.1,2-2.3,2.9-3.7c0.7,0.6,1.6,1,2.9,1.3c1.2,0.3,2.4,0.5,3.4,0.5c1.5,0,2.8-0.4,3.8-1.1
		c1-0.8,1.6-1.8,1.9-3.2c0-0.1,0-0.2,0-0.4c-0.8,1.2-1.9,2.1-3.3,2.7c-1.4,0.6-2.8,0.8-4.2,0.8c-1.4,0-2.6-0.3-3.8-0.8
		s-2-1.2-2.7-2.1c-0.6-0.9-1-1.9-1-3c0-1.6,0.4-2.9,1.3-4.1c0.9-1.1,2.1-2,3.7-2.5c1.5-0.6,3.3-0.9,5.2-0.9
		C729.2,534.4,731,534.7,732.5,535.5z M728.9,543.2c0.6-0.2,1-0.5,1.4-0.8c0.3-0.3,0.5-0.7,0.5-1.1c0-0.6-0.4-1.1-1.1-1.5
		c-0.7-0.4-1.6-0.6-2.6-0.6s-1.9,0.2-2.6,0.6c-0.7,0.4-1.1,0.9-1.1,1.5c0,0.6,0.4,1.1,1.1,1.5c0.7,0.4,1.6,0.6,2.6,0.6
		C727.7,543.5,728.3,543.4,728.9,543.2z"/>
	<path class="st3" d="M756.2,541c1.3,0.5,2.3,1.3,3,2.2c0.7,0.9,1,2,1,3.1c0,2.6-0.9,4.5-2.7,5.7c-1.8,1.2-4.2,1.8-7.3,1.8
		c-2.5,0-4.8-0.4-6.7-1.3s-3.3-2.3-4.2-4.3c1-0.1,2-0.4,3.1-0.7c1.1-0.3,2.2-0.6,3.1-1c0.4,0.7,0.9,1.3,1.5,1.6
		c0.7,0.3,1.5,0.5,2.7,0.5c1.2,0,2.2-0.2,2.9-0.6c0.8-0.4,1.2-0.9,1.2-1.6c0-0.7-0.3-1.3-1-1.7c-0.7-0.5-1.7-0.7-3.1-0.7
		c-0.9,0-1.7,0.2-2.5,0.5c-0.7,0.3-1.3,0.8-1.6,1.4h-6c0.4-1.8,0.8-3.7,1.1-5.8c0.3-2.1,0.5-3.9,0.6-5.5h18.3v5
		c-1.9-0.1-3.7-0.2-5.4-0.2c-1.7,0-4.1,0-7.2,0l-0.3,1.5c1.3-0.4,2.8-0.7,4.5-0.7C753.2,540.2,754.9,540.5,756.2,541z"/>
	<path class="st3" d="M762.9,552.9c-0.5-0.5-0.8-1.2-0.8-2c0-0.8,0.3-1.4,0.8-1.9c0.5-0.5,1.2-0.8,2-0.8c0.7,0,1.4,0.3,1.9,0.8
		c0.5,0.5,0.8,1.2,0.8,1.9c0,0.8-0.3,1.4-0.8,2c-0.5,0.5-1.2,0.8-1.9,0.8C764.1,553.8,763.4,553.5,762.9,552.9z"/>
	<path class="st3" d="M785.8,543.7c1.1,0,1.9,0.2,2.6,0.5c0.7,0.4,1.1,0.8,1.4,1.4c0.3,0.5,0.4,1.1,0.4,1.7c0,1.4-0.5,2.5-1.4,3.5
		c-0.9,1-2.1,1.7-3.7,2.2c-1.5,0.5-3.3,0.7-5.1,0.7c-5.5,0-9-1.9-10.6-5.7l1.5-0.4c1.1-0.3,2-0.5,2.7-0.7c0.8-0.2,1.4-0.5,2-0.8
		c0.3,0.9,0.8,1.5,1.5,1.9c0.7,0.4,1.5,0.6,2.7,0.6c1.2,0,2.2-0.1,3-0.4c0.8-0.3,1.1-0.7,1.1-1.2c0-0.3-0.1-0.5-0.4-0.7
		c-0.3-0.2-0.8-0.3-1.4-0.3s-1.5-0.1-2.7-0.1h-2v-4.5h1.2c1.3,0,2.4-0.1,3.2-0.2c0.8-0.1,1.2-0.4,1.2-0.7c0-0.4-0.2-0.8-0.7-1.1
		c-0.4-0.3-1.1-0.4-2.1-0.4c-1.2,0-2.2,0.3-3,0.8c-0.8,0.5-1.3,1.2-1.8,2.2c-1.9-0.7-3.8-1.3-5.9-1.6c0.8-1.9,2.1-3.3,3.8-4.3
		c1.7-1,3.9-1.5,6.7-1.5c1.8,0,3.4,0.2,4.8,0.7c1.4,0.5,2.5,1.1,3.3,1.9c0.8,0.8,1.2,1.7,1.2,2.7c0,0.6-0.1,1.1-0.4,1.6
		c-0.3,0.5-0.8,0.9-1.6,1.4c-0.8,0.4-2,0.9-3.5,1.3C784.5,543.8,785.2,543.7,785.8,543.7z"/>
</g>
<polygon class="st4" points="86.8,26.3 880.6,26 896.4,41.9 895.9,167.3 881.1,182.1 881.1,322.3 896.7,337.8 896.7,478 
	805.8,567.8 513.6,567.8 461.6,515.8 59.8,515.8 25.7,481.5 25.8,87.3 "/>
<polygon class="st5" points="0,469.6 0,500.9 56.2,557.1 394.7,557.1 368,530.4 59.6,530.4 "/>
<polygon class="st5" points="377.9,530.4 404.6,557.1 422.4,557.1 395.7,530.4 "/>
<polygon class="st5" points="404.3,530 431.7,557.4 449.9,557.4 422.5,530 "/>
<polygon class="st5" points="430.8,530 467.2,566.4 485.5,566.4 449,530 "/>
<polygon class="st3" points="11.8,172.6 0.3,161.1 0.3,83.3 83.2,0.5 176.7,0.5 164.1,13 86.3,13 11.7,87.2 "/>
<polygon class="st3" points="-1.2,69.3 -1,38 36.4,0.6 68,0.6 "/>
<polygon class="st3" points="924.4,27.1 924.4,57.9 924.2,177.1 908.4,193 908.4,312 924.2,327.8 923.8,493.7 842.8,574.7 
	817.4,574.2 905.5,486.1 905.9,335.4 890.1,319.6 890.1,185.4 905.5,170 905.6,39.5 905.3,39.2 915.7,18.5 "/>
<polygon class="st6" points="916.7,57.4 916.7,88.1 897.9,69.3 859.3,30.8 890.1,30.8 900.5,41.2 "/>
<polygon class="st3" points="924.4,27.1 924.4,57.9 924.2,58.1 905.3,39.2 879.5,13.4 867.5,1.3 868.8,0 897.3,0 "/>
<polygon class="st3" points="910.6,17.3 761.4,17.3 775.7,0 897.3,0 "/>
<polygon class="st5" points="-28.9,484 -40.7,484 -40.7,391.1 -28.6,403.2 "/>
</svg>
