<?xml version="1.0" encoding="UTF-8"?>
<svg id="Guías" xmlns="http://www.w3.org/2000/svg" viewBox="0 0 926.23 570.62">
  <defs>
    <style>
      .cls-1, .cls-2 {
        fill: #fff;
      }

      .cls-3 {
        letter-spacing: -.08em;
      }

      .cls-4 {
        letter-spacing: -.02em;
      }

      .cls-5 {
        fill: none;
        stroke: #fff;
        stroke-miterlimit: 10;
        stroke-width: 2px;
      }

      .cls-2 {
        font-family: DelaGothicOne-Regular, 'Dela Gothic One';
        font-size: 26px;
      }
    </style>
  </defs>
  <g>
    <text class="cls-2" transform="translate(521.56 544.73)"><tspan x="0" y="0">ÓRBI</tspan><tspan class="cls-3" x="88.63" y="0">T</tspan><tspan x="110.97" y="0">A </tspan><tspan class="cls-4" x="140.69" y="0">F</tspan><tspan x="162.53" y="0">M 95.3</tspan></text>
    <polygon class="cls-5" points="83.1 23.36 807.35 23.08 885.23 100.96 885.23 171.33 877.44 179.12 877.44 319.29 893.02 334.87 893.02 475.05 802.12 564.85 509.93 564.85 448.17 503.09 74.05 503.09 28.92 457.96 28.59 77.88 83.1 23.36"/>
    <polygon class="cls-1" points="1.65 448.51 1.69 484.17 57.88 540.37 396.37 540.37 369.61 513.64 66.79 513.64 1.65 448.51"/>
    <polygon class="cls-1" points="373.87 513.64 400.59 540.37 418.41 540.37 391.65 513.67 373.87 513.64"/>
    <polygon class="cls-1" points="395.95 513.64 422.67 540.37 440.49 540.37 413.73 513.67 395.95 513.64"/>
    <polygon class="cls-1" points="418.03 513.64 453.58 549.19 471.4 549.19 435.81 513.67 418.03 513.64"/>
    <polygon class="cls-1" points="13.1 162.95 1.6 151.46 1.68 73.64 75.32 0 168.77 0 156.24 12.53 78.11 12.85 13.08 77.54 13.1 162.95"/>
    <polyline class="cls-1" points="0 59.74 0 28.59 28.49 .1 60.15 .1"/>
    <polygon class="cls-1" points="844.87 570.62 819.42 570.2 907.54 482.09 907.92 331.35 892.11 315.54 892.11 181.36 900.02 173.45 900.02 101.9 820.2 22.08 846.11 22.13 918.31 94.32 918.31 181.02 910.4 188.94 910.4 307.96 926.23 323.79 925.81 489.68 844.87 570.62"/>
  </g>
  <polygon class="cls-1" points="924.26 85.24 861 22.08 891.73 22.08 924.17 54.51 924.26 85.24"/>
</svg>