<?xml version="1.0" encoding="UTF-8"?>
<svg id="Guías" xmlns="http://www.w3.org/2000/svg" viewBox="0 0 370.45 501.61">
  <defs>
    <style>
      .cls-1 {
        fill: #fff;
      }

      .cls-2 {
        stroke-width: .75px;
      }

      .cls-2, .cls-3 {
        fill: none;
        stroke: #fff;
        stroke-miterlimit: 10;
      }

      .cls-3 {
        stroke-width: .5px;
      }
    </style>
  </defs>
  <polygon class="cls-3" points="3.61 37.7 40.56 .75 188.36 .75 225.31 37.7 336.16 37.7 354.64 56.18 354.64 425.67 317.69 462.62 280.74 462.62 243.79 499.57 59.04 499.57 3.61 444.15 3.61 37.7"/>
  <polygon class="cls-1" points="331.81 501.49 58.54 501.49 30.7 472.97 322.59 473.02 368.76 427.59 368.76 464.54 331.81 501.49"/>
  <polygon class="cls-3" points="203.68 .13 234.97 31.41 271.47 31.16 240.55 .24 203.68 .13"/>
  <polygon class="cls-3" points="248.49 .13 279.78 31.41 316.27 31.16 285.35 .24 248.49 .13"/>
  <polygon class="cls-3" points="294.13 .13 325.41 31.41 361.91 31.16 330.99 .24 294.13 .13"/>
  <polygon class="cls-2" points="46.28 500.16 2.13 456.01 1.7 500.12 46.28 500.16"/>
  <g>
    <g>
      <path class="cls-3" d="m308.82,372.05c27.46-34.42,40-76.39,35.31-118.18-2.51-22.37-9.24-44.58-19.47-64.23-10.77-20.71-24.96-38.17-42.17-51.9-32.16-25.67-74.6-36.37-122.71-30.97-47.35,5.32-85.94,25.14-111.61,57.3-13.63,17.09-24.06,37.83-30.15,59.98-5.98,21.75-7.82,44.94-5.34,67.07,2.34,20.84,9.14,40.93,20.22,59.72,10.59,17.97,24.58,33.96,41.6,47.54,17.39,13.88,37.28,24.89,57.51,31.85,22.22,7.64,44.09,10.33,65.01,7.98,21.12-2.37,42.05-9.84,62.21-22.19,18.53-11.35,35.68-26.56,49.58-43.98ZM49.11,164.82c25.46-31.91,63.78-51.57,110.81-56.86,47.79-5.37,89.92,5.25,121.83,30.71,33.68,26.87,55.98,68.91,61.2,115.33,4.66,41.48-7.79,83.14-35.05,117.31-29.23,36.63-70.72,61.19-110.99,65.72-40.14,4.51-84.47-9.91-121.65-39.57l-.37.47.37-.47c-35-27.93-56.8-65.74-61.38-106.47-5.06-45.01,8.11-92.18,35.23-126.17Z"/>
      <path class="cls-3" d="m297.08,365.48c11.83-14.82,20.64-31.21,26.21-48.72,5.86-18.44,7.79-37.18,5.72-55.69-2.32-20.77-8.53-41.65-17.97-60.37-9.85-19.54-23-36.19-38.03-48.15-36.21-28.82-85.49-28.19-111.65-25.25-20.63,2.32-39.53,7.35-56.18,14.95-18.66,8.52-33.89,20.04-45.26,34.25-.03.04-.06.08-.09.12-12.24,15.34-21.67,34.49-27.3,55.41-5.54,20.61-7.25,42.37-4.94,62.92,2.06,18.3,8.43,36.17,18.95,53.12,9.48,15.28,22.39,29.64,37.33,41.53,16.27,12.95,34.15,23.39,51.72,30.19,20.77,8.04,40.84,11.05,59.65,8.94,19.13-2.15,38.32-9.5,57.05-21.84,16.18-10.66,31.62-24.92,44.68-41.24.04-.05.08-.1.12-.15Zm-1.05-.59l.47.37-.47-.37c-28.65,35.82-65.44,58.65-100.92,62.64-34.33,3.86-74.6-10.31-110.49-38.88-31.61-25.16-51.96-59.36-55.84-93.84-4.7-41.84,7.55-86.83,31.99-117.45.03-.04.06-.08.09-.12,21.23-26.54,56.97-43.85,100.64-48.76,25.97-2.92,74.9-3.55,110.77,25,29.47,23.46,50.76,64.73,55.56,107.72,3.97,35.6-7.57,73.34-31.68,103.55-.04.05-.08.1-.12.15Z"/>
      <path class="cls-3" d="m285.18,363.77c10.35-12.97,18.43-27.94,23.39-43.33,5.35-16.62,7.12-33.4,5.26-49.88-2.12-18.82-7.76-37.8-16.31-54.89-8.93-17.85-20.72-32.9-34.1-43.53-12.51-9.94-28.37-16.8-47.15-20.41-16.32-3.14-34.79-3.7-53.4-1.61-18.25,2.04-35.75,6.64-50.62,13.3-16.99,7.6-30.68,17.8-40.7,30.3-11.01,13.73-19.52,31.08-24.63,50.18-5.03,18.79-6.58,38.56-4.5,57.18,1.82,16.31,7.62,32.31,17.24,47.57,8.55,13.57,20.12,26.34,33.46,36.94l.37-.47-.37.47c14.8,11.75,30.84,21.25,46.37,27.46,18.84,7.53,36.96,10.38,53.88,8.48,17.24-1.94,34.57-8.7,51.51-20.09,14.34-9.64,28.2-22.58,40.09-37.41.06-.08.13-.16.19-.24ZM72.34,194.65c.05-.07.1-.13.16-.2,25.3-31.56,67.57-40.58,90.52-43.15,40.24-4.5,76.57,3.43,99.67,21.78,26.39,20.96,45.53,58.36,49.96,97.62,3.57,31.6-6.78,65.23-28.39,92.32-.07.08-.13.16-.2.25-26.23,32.73-59.33,53.52-90.81,57.06-41.5,4.66-80.08-20.36-99.38-35.69-28.52-22.65-46.83-53.16-50.25-83.7-4.26-38.05,6.75-78.75,28.72-106.28Z"/>
      <path class="cls-3" d="m272.98,366.09c9.56-11.98,16.42-26.06,20.39-41.88,3.72-14.82,4.75-31.03,2.95-46.88-1.81-16.05-6.52-31.87-13.59-45.74-7.44-14.59-17.19-26.73-28.96-36.09-21.21-16.86-53.8-24.25-89.41-20.26-16.09,1.8-31.66,6-45.02,12.14-15.01,6.9-27.2,16.08-36.21,27.31-.07.09-.15.18-.22.27-19.63,24.61-29.47,60.79-25.67,94.54,3.14,27.93,19.57,55.57,45.07,75.83,13.02,10.35,27.3,18.69,41.31,24.12,16.65,6.46,32.75,8.87,47.87,7.17,15.36-1.73,30.75-7.62,45.77-17.51,12.94-8.53,25.29-19.93,35.69-32.95l.04-.04Zm-.97-.7l.47.37-.47-.37c-10.81,13.53-40.31,45.49-80.66,50.03-27.42,3.08-59.6-8.23-88.3-31.04-25.25-20.07-41.52-47.41-44.62-75.03-3.76-33.44,5.97-69.29,25.42-93.66.07-.09.14-.18.22-.27,16.84-20.95,46.16-35.17,80.43-39,35.3-3.95,67.56,3.35,88.53,20.01,23.01,18.29,38.36,47.83,42.11,81.03,3.71,32.81-4.71,64.84-23.09,87.88l-.03.04Z"/>
      <path class="cls-3" d="m261.09,370.62c8.4-10.52,14.45-22.77,18-36.4,3.4-13.09,4.34-26.79,2.8-40.74-3.23-29.17-17.02-55.41-37.83-71.97-10.05-8-22.26-13.75-36.3-17.09-13.24-3.15-27.77-3.96-42-2.34-29.52,3.37-55.39,16.52-71.01,36.09-.04.04-.07.09-.11.13-8.48,10.68-14.64,23.06-18.3,36.79-3.53,13.25-4.56,27.04-3.06,40.98,1.51,14.01,5.48,27.28,11.81,39.45,6.62,12.72,15.48,23.55,26.34,32.2,11.1,8.84,23.68,15.92,36.36,20.48,14.38,5.17,28.43,7.03,41.76,5.53,13.54-1.52,26.96-6.42,39.9-14.57,11.52-7.26,22.38-17.02,31.4-28.23.08-.1.16-.2.24-.3ZM95.69,238.91c15.42-19.33,41-32.32,70.21-35.65,29.65-3.38,57.87,3.61,77.42,19.18,20.56,16.37,34.18,42.31,37.38,71.17,3.13,28.21-4.36,55.99-20.55,76.28-.08.09-.15.19-.23.28-19.36,24.06-45.06,39.5-70.5,42.36-25,2.81-53.15-6.58-77.24-25.76l-.37.47.37-.47c-43.71-34.81-51.47-103.84-16.6-147.74.03-.04.07-.09.1-.13Z"/>
      <path class="cls-3" d="m248.73,377.29c7.5-9.39,12.91-20.17,16.08-32.02,3.05-11.38,3.9-23.2,2.53-35.13-1.36-11.9-4.85-23.21-10.37-33.6-5.72-10.78-13.34-20.01-22.65-27.43-17.8-14.2-42.17-20.76-66.87-18-11.88,1.33-23.61,4.84-33.91,10.17-10.9,5.64-20.12,13.12-27.41,22.24h0c-7.5,9.41-12.93,20.14-16.15,31.92-3.1,11.36-4,23.14-2.68,35.02,1.32,11.89,4.8,23.19,10.33,33.59,5.75,10.81,13.46,20.12,22.91,27.66,9.35,7.46,20.23,13.31,31.46,16.92,11.97,3.84,23.95,5.13,35.6,3.82,11.72-1.32,23.17-5.22,34.03-11.6,10.24-6.02,19.62-14.16,27.1-23.54h0Zm-.94-.74l.47.37-.47-.37c-15.56,19.49-37.55,32.14-60.34,34.7-22.56,2.53-46.68-4.93-66.17-20.49-18.45-14.72-30.1-36.19-32.8-60.45-2.69-24.21,3.91-47.67,18.58-66.05h0c29.39-36.83,89.69-43.6,126.51-14.23,17.96,14.33,29.83,36.28,32.58,60.24,2.8,24.39-3.72,47.93-18.36,66.27h0Z"/>
      <path class="cls-3" d="m236.59,384.17c6.21-7.79,10.72-16.72,13.39-26.55,2.57-9.48,3.32-19.32,2.23-29.24-1.1-9.95-3.99-19.4-8.58-28.08-4.79-9.05-11.2-16.81-19.06-23.08-7.84-6.25-16.81-10.78-26.66-13.45-9.48-2.57-19.32-3.31-29.24-2.2-9.92,1.11-19.36,4.02-28.03,8.63-9.02,4.79-16.76,11.2-23.03,19.05h0c-6.28,7.88-10.81,16.89-13.47,26.79-2.55,9.5-3.25,19.36-2.1,29.31,1.15,9.91,4.07,19.34,8.68,28,4.78,8.98,11.15,16.67,18.91,22.87l.37-.47-.37.47c7.79,6.22,16.73,10.71,26.58,13.37,9.48,2.56,19.33,3.3,29.27,2.19,9.95-1.11,19.4-4,28.08-8.59,9.04-4.78,16.79-11.17,23.03-18.99h0Zm-118.06-94.18h0c25.33-31.74,73.54-37.16,105.29-11.84,15.3,12.21,24.96,30.09,27.2,50.36,2.2,19.91-3.4,39.92-15.36,54.91h0c-25.33,31.74-73.54,37.16-105.29,11.84-14.96-11.93-24.86-30.18-27.16-50.07-2.34-20.28,3.1-39.89,15.32-55.2Z"/>
      <path class="cls-3" d="m224.39,390.6s.05-.06.07-.09c9.49-11.94,13.91-28.21,12.14-44.62-.87-8.06-3.14-15.69-6.75-22.68-3.78-7.31-8.84-13.52-15.02-18.44-6.28-5-13.46-8.61-21.35-10.75-7.59-2.05-15.47-2.64-23.42-1.74-7.95.89-15.51,3.22-22.47,6.91-7.23,3.83-13.46,8.95-18.5,15.22-.05.06-.1.12-.14.18-4.82,6.04-8.3,13.07-10.33,20.89-1.95,7.51-2.49,15.37-1.61,23.37,1.85,16.74,9.77,31.79,21.72,41.31,11.7,9.32,28.1,13.56,44.98,11.63,16.64-1.9,31.46-9.62,40.69-21.18Zm-94.51-75.27c.04-.06.09-.11.13-.17,20.31-25.23,58.8-29.55,84.06-9.45,24.44,19.45,28.94,59.52,9.45,84.06-.02.03-.04.06-.07.08-9.03,11.32-23.57,18.88-39.89,20.74-16.57,1.89-32.65-2.26-44.1-11.38-11.7-9.32-19.46-24.08-21.28-40.5-1.78-16.05,2.48-31.85,11.69-43.39Z"/>
      <path class="cls-3" d="m212.42,395.15c7.14-8.95,10.42-21.27,9-33.8-1.41-12.39-7.35-23.56-16.3-30.65-9.45-7.48-21.42-10.86-33.71-9.51-12.32,1.35-23.24,7.28-30.76,16.7-.02.02-.03.04-.05.06-7.13,8.97-10.34,21.38-8.8,34.04,1.52,12.47,7.37,23.58,16.05,30.48l.37-.47-.37.47c8.46,6.72,20.67,9.78,33.49,8.38,12.89-1.41,24.19-7.1,31.02-15.63.02-.02.03-.04.05-.06Zm-70.83-56.52c15.03-18.84,43.77-22.05,62.79-7,8.71,6.89,14.49,17.77,15.86,29.85,1.39,12.25-1.83,24.27-8.8,32.99-13.82,17.25-45.53,20.81-62.84,7.06-8.44-6.7-14.12-17.52-15.6-29.69-1.5-12.35,1.61-24.43,8.54-33.15.02-.02.03-.04.05-.06Z"/>
      <path class="cls-3" d="m200.27,397.28s.04-.05.06-.07c4.68-5.92,6.85-14.11,5.96-22.49-.9-8.47-4.85-16.05-10.83-20.8-12.97-10.29-32.79-8.06-43.29,4.86-4.69,5.78-6.85,13.89-5.93,22.28.93,8.53,4.97,16.39,10.8,21.01,5.63,4.47,14.15,6.54,22.81,5.54,8.53-.99,15.97-4.75,20.43-10.33Zm-47.29-37.59c.04-.05.08-.1.13-.16,10.09-12.43,29.15-14.57,41.61-4.68,11.87,9.42,14.14,29.64,4.67,41.61-.02.02-.04.05-.05.07-4.26,5.34-11.41,8.94-19.63,9.89-8.34.97-16.54-1.01-21.93-5.29-5.58-4.43-9.45-11.99-10.35-20.21-.87-8,1.15-15.73,5.55-21.24Z"/>
      <path class="cls-3" d="m188.29,395.51s.05-.06.07-.09c5.07-6.48,3.88-17-2.48-22.06-6.46-5.14-16.77-3.98-22.06,2.47-2.4,2.93-3.53,7.06-3.08,11.31.47,4.41,2.49,8.33,5.55,10.76h0c2.96,2.36,7.34,3.46,11.71,2.94,4.24-.5,7.97-2.44,10.28-5.33Zm-23.64-18.81s.06-.08.09-.12c4.89-5.97,14.42-7.04,20.39-2.3,5.88,4.68,6.97,14.4,2.29,20.39-2.11,2.7-5.58,4.5-9.55,4.97-4.06.48-8.11-.52-10.83-2.69-2.77-2.2-4.68-5.92-5.11-9.95-.41-3.88.58-7.63,2.72-10.31Z"/>
    </g>
    <g>
      <path class="cls-3" d="m308.01,372.16l.7-.97c-10.33-7.4-21.41-9.55-33.87-6.56-11.04,2.64-22.08,8.97-32.75,15.09-22.22,12.74-43.21,24.77-65.69,8.22l-.71.96c10.38,7.64,21.51,9.92,34.04,6.98,11.1-2.6,22.21-8.97,32.95-15.13,21.12-12.1,42.95-24.62,65.33-8.59Z"/>
      <path class="cls-3" d="m223.12,431.91c-4.49-10.62-10.08-23.84-23.81-23.42-1.02.03-2.06.13-3.06.23-2.54.25-4.94.49-7.27-.28-7.01-2.31-9.73-11.41-11.71-18.05-.22-.75-.44-1.47-.65-2.16l-1.14.36c.21.68.43,1.4.65,2.15,2.06,6.89,4.89,16.33,12.48,18.84,2.57.85,5.21.59,7.76.33.98-.1,2-.2,2.98-.23,5.72-.18,10.45,2.16,14.44,7.16,3.54,4.43,6.03,10.33,8.23,15.53l1.1-.47Z"/>
      <path class="cls-3" d="m169.24,402.97c3.06-3.83,5.09-8.82,6.78-12.94.19-.47.38-.94.57-1.39l-1.1-.46c-.19.45-.38.92-.57,1.39-2.88,7.06-6.83,16.73-15.12,18.1-3.15.52-6.35-.38-9.45-1.24-.7-.2-1.43-.4-2.15-.58-6.92-1.77-12.68-.72-17.63,3.23-4.77,3.81-8.26,9.92-11.04,15.4l1.07.54c6.94-13.66,13.93-21.44,27.31-18.01.7.18,1.42.38,2.12.58,3.22.9,6.56,1.84,9.97,1.27,3.9-.65,6.88-2.92,9.25-5.89Z"/>
      <path class="cls-3" d="m176.34,388.93l-.61-1.03c-21.72,13.01-43.59.1-62.89-11.29-1.52-.9-3.09-1.83-4.62-2.71-21.01-12.22-43.62-23.36-68.64-13.74l.43,1.12c24.52-9.42,46.84,1.58,67.61,13.66,1.52.89,3.09,1.81,4.61,2.71,19.59,11.56,41.79,24.66,64.11,11.29Z"/>
      <path class="cls-3" d="m176,389.01l.07-1.19c-16.92-.94-31.47-13.12-43.77-24.45-9.96-9.18-19.41-19.23-28.54-28.94-2.96-3.15-6.02-6.41-9.06-9.59-10.77-11.29-23.44-24.27-37.45-35.45-15.02-11.99-29.61-20.32-44.61-25.47l-.39,1.13c32.55,11.16,58.15,36.06,81.58,60.61,3.03,3.18,6.09,6.43,9.05,9.58,9.15,9.73,18.61,19.8,28.6,29.01,12.46,11.48,27.19,23.8,44.51,24.77Z"/>
      <path class="cls-3" d="m176.41,387.95c-15.25-12.21-25.24-31.46-34.06-48.45l-.25-.48c-9.93-19.13-18.84-39.17-27.46-58.55l-3.69-8.3c-8.4-18.88-17.08-38.4-26.67-57.1l-.39-.77c-9-17.56-19.2-37.46-34.87-50.32l-.76.92c15.47,12.7,25.62,32.49,34.56,49.94l.39.77c9.57,18.67,18.25,38.18,26.64,57.04l3.69,8.3c8.63,19.4,17.55,39.45,27.49,58.62l.25.48c8.87,17.09,18.93,36.47,34.37,48.84l.75-.93Z"/>
      <path class="cls-3" d="m176.61,388.26c-5.17-18.82-7.81-38.68-10.36-57.89-.37-2.81-.75-5.61-1.12-8.4-2.49-18.35-4.83-37.03-7.09-55.1-.75-6.01-1.5-12.02-2.26-18.02l-.59-4.7c-5.51-43.62-11.2-88.72-20.32-132.45l-1.17.24c9.11,43.68,14.81,88.76,20.31,132.35l.59,4.7c.76,6.01,1.51,12.02,2.26,18.02,2.26,18.07,4.6,36.75,7.1,55.11.38,2.79.75,5.59,1.12,8.39,2.56,19.25,5.21,39.16,10.39,58.05l1.15-.32Z"/>
      <path class="cls-3" d="m176.6,388.62c6.94-18.54,10.99-38.45,14.9-57.71.48-2.34.95-4.68,1.43-7,4.18-20.37,8.12-41.14,11.92-61.22.74-3.89,1.47-7.77,2.21-11.66,1.25-6.57,2.5-13.26,3.7-19.74,7.26-38.93,14.77-79.18,26.7-117.4l-1.14-.36c-11.95,38.28-19.47,78.57-26.74,117.53-1.21,6.48-2.46,13.17-3.7,19.73-.74,3.89-1.47,7.77-2.21,11.66-3.8,20.08-7.74,40.85-11.92,61.2-.48,2.33-.95,4.66-1.43,7.01-3.9,19.22-7.94,39.09-14.85,57.53l1.12.42Z"/>
      <path class="cls-3" d="m194.91,371.28c6.89-8.63,12.73-18.3,18.18-27.31l1.18-1.95c9.79-16.16,18.92-33.06,27.76-49.4,1.7-3.14,3.39-6.27,5.09-9.41,11.2-20.62,21.39-39.16,32.79-57.22,10.66-16.89,22.59-34.37,37.64-47.8l-.8-.89c-15.16,13.53-27.15,31.09-37.85,48.06-11.41,18.09-21.62,36.65-32.83,57.29-1.7,3.13-3.4,6.27-5.09,9.41-8.83,16.33-17.96,33.21-27.73,49.35l-1.18,1.95c-9.67,16-20.63,34.14-36.36,44.56l.66,1c7.03-4.66,13.11-10.82,18.55-17.63Z"/>
      <path class="cls-3" d="m344.52,280.06l-.29-1.16c-33.23,8.28-59.92,30.93-84.41,53.41-3.14,2.88-6.31,5.84-9.38,8.7-9.19,8.57-18.7,17.43-28.62,25.47-13.35,10.82-28.99,22.28-45.76,21.34l-.07,1.19c17.2.97,33.06-10.65,46.58-21.61,9.95-8.06,19.47-16.94,28.68-25.53,3.06-2.86,6.23-5.81,9.37-8.69,24.37-22.38,50.93-44.91,83.89-53.13Z"/>
    </g>
  </g>
</svg>