<?xml version="1.0" encoding="UTF-8"?>
<svg id="Guías" xmlns="http://www.w3.org/2000/svg" xmlns:xlink="http://www.w3.org/1999/xlink" viewBox="0 0 370.45 501.61">
  <defs>
    <style>
      .cls-1 {
        fill: #fff;
      }

      .cls-2 {
        stroke-width: .75px;
      }

      .cls-2, .cls-3 {
        stroke: #fff;
        stroke-miterlimit: 10;
      }

      .cls-2, .cls-3, .cls-4 {
        fill: none;
      }

      .cls-3 {
        stroke-width: .5px;
      }

      .cls-5 {
        clip-path: url(#clippath);
      }
    </style>
    <clipPath id="clippath">
      <polygon class="cls-4" points="2.3 37.83 39.25 .88 187.04 .88 223.99 37.83 334.84 37.83 353.32 56.3 353.32 425.8 316.37 462.75 279.42 462.75 242.47 499.7 57.72 499.7 2.3 444.28 2.3 37.83"/>
    </clipPath>
  </defs>
  <polygon class="cls-3" points="2.3 37.83 39.25 .88 187.04 .88 223.99 37.83 334.84 37.83 353.32 56.3 353.32 425.8 316.37 462.75 279.42 462.75 242.47 499.7 57.72 499.7 2.3 444.28 2.3 37.83"/>
  <polygon class="cls-3" points="2.3 37.83 39.25 .88 187.04 .88 223.99 37.83 334.84 37.83 353.32 56.3 353.32 425.8 316.37 462.75 279.42 462.75 242.47 499.7 57.72 499.7 2.3 444.28 2.3 37.83"/>
  <g class="cls-5">
    <g>
      <path class="cls-3" d="m103.04,156.41c-.15-.03-.29-.05-.44-.08-7.51,12.7-13.96,26.56-19.25,41.11.27.05.53.1.8.14-.19.54-.38,1.08-.57,1.62-.27-.05-.54-.1-.81-.15-5.21,14.61-9.25,29.9-12.04,45.44.37.07.74.13,1.11.2-.1.57-.2,1.15-.29,1.73-.37-.07-.75-.13-1.12-.2-2.69,15.55-4.12,31.33-4.18,46.89.44.08.89.16,1.33.24,0,.58,0,1.15,0,1.73-.45-.08-.9-.16-1.34-.24.04,15.54,1.44,30.84,4.31,45.46.48.09.97.18,1.46.26.11.54.22,1.08.33,1.62-.49-.09-.97-.17-1.46-.26,1.49,7.28,3.34,14.39,5.58,21.27,2.23,6.88,4.78,13.3,7.59,19.25.48.09.97.18,1.46.26.21.44.42.88.63,1.31-.49-.09-.97-.17-1.46-.26,5.7,11.77,12.49,21.66,20.08,29.6.44.08.89.16,1.34.24.28.29.56.58.84.87-.45-.08-.89-.16-1.33-.24,7.65,7.8,16.1,13.64,25.09,17.46.37.07.74.14,1.12.2.33.14.66.28.99.41-.37-.07-.74-.13-1.11-.2,3.77,1.27,8.84,2.87,12.71,3.75-11.96-2.62-20.61-4.51-35.59-10.57-12.79-5.85-16.65-7.61-31.35-16.93-12.56-9.22-15.18-11.14-26.1-21.67-11.27-12.28-13-14.16-21.14-25.84-9-14.64-13.96-22.7-21.3-43.9-4.8-17.06-5.42-19.26-7.35-33-1.46-17.25-1.64-19.47-.95-33.37,1.74-16.51,2.01-19.05,5.43-33.13,4.52-14.87,5.46-17.96,12.11-32.46,9.95-18.67,16.18-28.23,31.31-44.73,9.52-9.36,9.89-9.72,16.12-14.84q9.53-7.34,14.91-10.86,9.14-5.65,14.01-8.22,8.92-4.45,13.52-6.39,8.91-3.55,13.45-5.04,9.14-2.81,13.79-3.93c9.46-2.08,9.64-2.12,14.6-2.88,10.09-1.32,10.49-1.38,16.01-1.72,11.08-.4,11.74-.43,18.22-.16,12.41.88,13.42.95,21.45,2.24,22.34,4.45,33.4,8.18,53.79,18.16,13,7.49,16.09,9.27,28.88,19.15,12.09,10.64,14.27,12.56,23.87,23.61,10.26,13.32,11.84,15.37,18.85,27.56,7.88,15.71,8.9,17.73,13.45,31.02,4.34,15.42,7.21,25.61,8.49,46.39.14,17.17.16,19.38-1.61,33.34-2.9,15.84-3.42,18.69-8.05,32.9-5.46,13.99-6.76,17.31-15.04,32.16-7.9,12.29-11.87,18.46-24.35,31.9-9.52,9.36-9.89,9.72-16.12,14.84q-9.53,7.34-14.91,10.86-9.14,5.65-14.01,8.22-8.92,4.45-13.52,6.39-8.9,3.55-13.45,5.04-9.14,2.81-13.79,3.93c-9.46,2.08-9.64,2.12-14.6,2.88-10.09,1.32-10.49,1.38-16.01,1.72-11.08.4-11.74.43-18.22.16-5.59-.4-13.04-1.1-18.61-1.79-4.92-.74-9.73-2.1-14.42-4.04-.38-.06-.76-.11-1.13-.17-.32-.13-.65-.27-.97-.41.38.06.76.12,1.14.18-8.64-3.76-16.8-9.55-24.22-17.31-.46-.07-.91-.14-1.36-.21-.28-.29-.55-.58-.83-.87.46.07.91.14,1.37.21-7.37-7.9-13.99-17.77-19.61-29.52-.5-.07-.99-.15-1.49-.23-.21-.43-.42-.87-.62-1.31.5.08.99.15,1.49.23-2.77-5.95-5.29-12.36-7.53-19.24s-4.11-13.99-5.64-21.28c-.5-.07-.99-.15-1.49-.23-.11-.54-.22-1.08-.33-1.62.49.08.99.15,1.49.23-2.95-14.63-4.51-29.96-4.78-45.54-.46-.07-.91-.14-1.37-.21,0-.58-.01-1.15-.02-1.73.45.07.91.14,1.36.21-.16-15.59.97-31.42,3.31-47.03-.38-.06-.76-.12-1.14-.18.09-.58.18-1.15.27-1.73.38.06.75.12,1.13.17,2.43-15.59,6.07-30.96,10.84-45.64-.28-.04-.55-.08-.83-.13.18-.54.36-1.08.55-1.62.27.04.54.08.82.13,4.84-14.63,10.8-28.57,17.79-41.36-.15-.02-.3-.05-.45-.07.26-.47.53-.94.79-1.41.14.02.29.04.43.07,7.06-12.71,15.15-24.25,24.18-34.19.29.04.62.02.94-.04,0-.18.02-.35.03-.53,0,0,.01,0,.02,0,0,.17,0,.35-.01.52.33-.07.65-.19.94-.35-.15-.12-.3-.23-.46-.35,0,0,.01,0,.02,0,.16.11.31.23.47.34.21-.12.4-.26.55-.42.05-.05.09-.1.13-.16-.27-.02-.54-.04-.81-.05,0,0,0,0,0-.01.27.01.55.03.82.04.15-.21.2-.41.17-.58-.3.08-.6.17-.91.25,0,0,0,0,0,0,.3-.09.6-.17.9-.26-.04-.17-.16-.32-.37-.42-.24.16-.48.32-.72.47,0,0,0,0-.01,0,.24-.16.47-.32.71-.48-.11-.05-.23-.09-.37-.11s-.3-.03-.46-.03c-.1.18-.2.36-.29.55,0,0-.01,0-.02,0,.09-.18.18-.37.28-.55-.32.02-.65.09-.97.2.07.15.14.3.21.45,0,0-.01,0-.02,0-.08-.15-.15-.29-.23-.44-.32.12-.61.28-.85.47.22.07.43.14.65.2,0,0,0,0-.01.01-.22-.07-.44-.13-.66-.19-.06.05-.11.1-.16.15-.15.16-.25.31-.29.46.3-.04.59-.08.89-.11,0,0,0,0,0,.01-.3.04-.6.08-.89.12-.06.2-.02.38.1.52.28-.13.56-.26.85-.38,0,0,0,0,0,0-.28.13-.56.26-.84.39.12.14.33.25.61.3-9.6,9.84-18.24,21.3-25.83,33.92.14.03.28.05.42.08-.28.47-.55.94-.82,1.41m-23.63,207.3c-25.57-78.72-2.77-187.86,50.93-243.78-53.7,55.92-76.51,165.07-50.93,243.78,13.94,42.91,39.38,67.92,68.33,72.73,13.07,1.8,13.58,1.87,21.45,2.24q11.9.21,18.22-.16,10.63-.89,16.01-1.72,9.77-1.72,14.6-2.88,9.25-2.44,13.79-3.93,9.03-3.18,13.45-5.04c8.88-3.97,9.05-4.04,13.52-6.39,8.97-4.98,9.32-5.17,14.01-8.22,9.23-6.34,9.78-6.72,14.91-10.86,9.35-8.03,10.33-8.87,16.12-14.84,9.7-10.75,14.56-16.15,24.35-31.9,6.98-12.67,8.85-16.08,15.04-32.16,4.61-14.91,5.56-18.02,8.05-32.9,1.75-16.59,2.02-19.14,1.61-33.34-1.42-16.36-2.27-26.24-8.49-46.39-6.14-16.63-6.93-18.76-13.45-31.02-8.96-14.81-10.11-16.72-18.85-27.56-11.11-12.33-12.82-14.23-23.87-23.61-12.39-9.37-14.97-11.32-28.88-19.15-20.99-10.21-31.55-13.78-53.79-18.16-13.07-1.79-13.58-1.87-21.45-2.24q-11.9-.21-18.22.16-10.63.89-16.01,1.72-9.77,1.72-14.6,2.88-9.25,2.44-13.79,3.93-9.03,3.18-13.45,5.04c-8.88,3.97-9.05,4.04-13.52,6.39-8.97,4.98-9.32,5.17-14.01,8.22-9.23,6.34-9.78,6.72-14.91,10.86-9.35,8.03-10.33,8.87-16.12,14.84-13.39,14.86-20.7,24.36-31.31,44.73-6.12,13.71-7.57,16.97-12.11,32.46-3.53,15.72-4.16,18.56-5.43,33.13-.47,16.81-.54,19.4.95,33.37,2.85,17.34,3.22,19.57,7.35,33,6.02,16.3,9.34,25.28,21.3,43.9,10.1,13.87,11.39,15.65,21.14,25.84,11.75,10.99,13.86,12.97,26.1,21.67,12.7,7.97,15.71,9.87,31.35,16.93,14.08,5.31,20.5,7.74,38.94,11.16-28.95-4.82-54.39-29.83-68.33-72.73"/>
      <path class="cls-3" d="m212.37,435.19c-.1.01-.2.03-.3.04-4.46.93-8.92,1.68-13.34,2.24l4.7-.66,1.18-.19c2.58-.42,5.17-.9,7.76-1.44m46.42-16.63l3-1.62c-14.61,8.04-31.18,14.2-47.85,17.88.09,0,.18-.02.27-.03,14.44-3.18,28.81-8.26,41.85-14.83l2.73-1.41"/>
      <path class="cls-3" d="m202.73,429.79c-.13-.14-.26-.29-.39-.43-23.21,4.85-46.47,6.17-67.14,3.09-.38-.06-.76-.12-1.14-.18.32.14.65.28.97.41.38.06.75.12,1.13.17,20.49,3.05,43.55,1.75,66.56-3.06m68.51-25.29c.07-.22.14-.43.21-.65-20.27,11.24-43.32,19.85-66.52,24.96.12.15.24.3.36.44,23-5.07,45.86-13.6,65.96-24.75m50.4-41.75c.22-.34.43-.67.64-1.01-2.73,3.69-5.87,7.4-9.43,11.11-10.69,11.13-24.12,21.17-39.16,29.75-.07.22-.15.44-.23.66,14.92-8.5,28.23-18.45,38.83-29.49,3.53-3.68,6.65-7.36,9.35-11.01m3.04-4.36l1.43-2.23c-.83,1.31-1.71,2.63-2.64,3.95-.21.34-.43.69-.65,1.03.65-.92,1.27-1.83,1.87-2.74m-191.89,73.92c-.33-.13-.66-.27-.99-.41-.37-.07-.75-.13-1.12-.2-7.43-1.37-14.12-3.28-20.04-5.65l2.5.98c5.54,2.11,11.73,3.83,18.54,5.08.37.07.74.13,1.11.2"/>
      <path class="cls-3" d="m191.04,411.45c-.15-.29-.3-.59-.45-.89-27.8,5.81-55.66,7.39-80.42,3.7-.46-.07-.91-.14-1.37-.21.27.29.55.58.83.87.45.07.91.14,1.36.21,24.65,3.67,52.38,2.1,80.05-3.68m82.39-30.42c-.02-.34-.04-.68-.06-1.03-24.28,13.47-51.9,23.78-79.69,29.9.14.3.29.6.43.89,27.66-6.09,55.15-16.36,79.32-29.76m60.61-50.21c.08-.42.15-.84.22-1.26-3.27,4.42-7.03,8.86-11.3,13.31-12.81,13.34-28.89,25.36-46.91,35.63.02.35.03.69.05,1.03,17.94-10.23,33.95-22.19,46.7-35.47,4.25-4.42,8-8.85,11.25-13.24m15.12-31.35l.45-2.16c-1.98,9.7-6.58,19.91-13.93,30.29-.07.43-.15.85-.23,1.27,7.13-10.07,11.66-19.97,13.71-29.4m-242.24,115.01c-.28-.29-.56-.58-.84-.87-.45-.08-.9-.16-1.34-.24-20.85-3.84-36.83-11.22-47.57-21.06l1.64,1.49c10.68,9.53,26.39,16.69,46.77,20.45.44.08.89.16,1.33.24"/>
      <path class="cls-3" d="m177.94,380.72c-.16-.44-.32-.88-.48-1.32-30.25,6.32-60.57,8.04-87.52,4.03-.5-.07-.99-.15-1.49-.23.21.44.41.88.62,1.31.49.08.99.15,1.49.23,26.9,4.01,57.18,2.29,87.38-4.02m89.94-33.21c-.11-.45-.23-.91-.35-1.37-26.42,14.65-56.48,25.88-86.72,32.54.16.44.32.88.48,1.32,30.2-6.65,60.2-17.86,86.59-32.49m66.16-54.81c-.08-.48-.16-.97-.25-1.45-3.56,4.81-7.65,9.64-12.3,14.48-13.94,14.51-31.44,27.6-51.05,38.78.12.46.23.92.34,1.37,19.58-11.16,37.06-24.23,50.97-38.72,4.64-4.83,8.73-9.66,12.28-14.46m17.44-53.72l-.3-2.15c2.33,15.85-2.76,33.82-15.84,52.28.08.49.16.97.24,1.46,12.89-18.2,18.01-35.91,15.9-51.59M26.78,354.29c-.24-.45-.48-.9-.72-1.36-2.21-2.75-4.1-5.62-5.68-8.62l1.02,1.92c1.51,2.8,3.3,5.49,5.38,8.06m59.34,29.73c-.21-.43-.42-.87-.63-1.31-.49-.09-.97-.17-1.46-.26-26.17-4.82-45.29-14.77-56.73-28.03.24.45.47.91.72,1.36,11.43,13.24,30.52,23.17,56.65,27.99.48.09.97.18,1.46.26"/>
      <path class="cls-3" d="m164.29,338.88c-.16-.54-.31-1.07-.47-1.61-30.21,6.31-60.48,8.03-87.38,4.02-.5-.07-.99-.15-1.49-.23.11.54.22,1.08.33,1.62.5.08.99.15,1.49.23,26.95,4.02,57.26,2.3,87.52-4.03m90.07-33.26c-.2-.52-.4-1.04-.61-1.56-26.38,14.63-56.39,25.84-86.59,32.49.16.54.31,1.08.47,1.61,30.24-6.66,60.3-17.88,86.72-32.54m66.26-54.9c-.23-.49-.47-.99-.71-1.48-3.55,4.8-7.64,9.63-12.28,14.46-13.92,14.49-31.39,27.56-50.97,38.72.2.52.41,1.04.61,1.56,19.61-11.18,37.11-24.26,51.05-38.78,4.65-4.84,8.74-9.67,12.3-14.48m17.07-56.27c-.24-.47-.49-.93-.73-1.39,3.03,16.28-1.94,34.9-15.5,54.06.24.49.48.98.71,1.48,13.59-19.19,18.56-37.84,15.53-54.14m-4.76-13.78l-1.01-1.91c2.13,3.97,3.7,8.15,4.67,12.51.25.46.49.92.73,1.39-.94-4.17-2.4-8.17-4.39-11.99M12.9,312.41c-.08-.52-.16-1.05-.24-1.57-5.96-7.4-9.61-15.78-10.84-24.84l.3,2.14c1.31,8.84,4.93,17.02,10.77,24.27m59.43,29.78c-.11-.54-.22-1.08-.33-1.62-.49-.09-.97-.17-1.46-.26-26.13-4.82-45.22-14.74-56.65-27.99.08.53.16,1.05.24,1.58,11.45,13.26,30.56,23.21,56.73,28.03.48.09.97.18,1.46.26"/>
      <path class="cls-3" d="m152.09,292.04c-.13-.57-.27-1.14-.4-1.71-27.67,5.78-55.4,7.36-80.05,3.68-.46-.07-.91-.14-1.36-.21,0,.58,0,1.15.02,1.73.46.07.91.14,1.37.21,24.76,3.69,52.62,2.11,80.42-3.7m82.77-30.56c-.26-.52-.52-1.05-.78-1.57-24.17,13.4-51.66,23.67-79.32,29.76.14.57.27,1.14.41,1.71,27.79-6.12,55.41-16.44,79.69-29.9m60.89-50.45c-.35-.45-.71-.89-1.06-1.33-3.25,4.4-7,8.82-11.25,13.24-12.75,13.28-28.76,25.24-46.7,35.47.27.52.53,1.04.79,1.56,18.02-10.27,34.11-22.3,46.91-35.63,4.27-4.45,8.03-8.89,11.3-13.31m15.69-51.71c-.38-.37-.76-.73-1.14-1.09,2.77,14.91-1.77,31.97-14.2,49.52.36.44.72.88,1.07,1.33,12.49-17.63,17.05-34.77,14.27-49.75m-15.33-26.71l-1.6-1.45c8.11,7.25,13.31,15.87,15.45,25.42.38.36.76.72,1.14,1.09-2.11-9.38-7.15-17.87-14.99-25.05M12.97,267.72c.08-.53.16-1.07.25-1.6-9.2-11.43-12.39-25.4-9.1-40.6l-.44,2.11c-3.05,15,.19,28.79,9.29,40.09m54.61,27.36c0-.57,0-1.15,0-1.73-.45-.08-.89-.16-1.33-.24-23.94-4.41-41.42-13.51-51.89-25.64-.08.53-.17,1.07-.24,1.6,10.52,12.19,28.09,21.33,52.14,25.76.44.08.89.16,1.34.24"/>
      <path class="cls-3" d="m142.09,243.89c-.1-.57-.21-1.14-.31-1.7-23.01,4.81-46.07,6.12-66.56,3.06-.38-.06-.76-.11-1.13-.17-.09.58-.18,1.15-.27,1.73.38.06.76.12,1.14.18,20.67,3.08,43.93,1.76,67.14-3.09m69.1-25.51c-.3-.5-.6-.99-.9-1.49-20.1,11.14-42.95,19.68-65.96,24.75.11.57.22,1.13.33,1.7,23.2-5.11,46.25-13.72,66.52-24.96m50.83-42.11c-.44-.38-.89-.75-1.34-1.13-2.7,3.66-5.82,7.33-9.35,11.01-10.6,11.04-23.91,20.99-38.83,29.49.31.49.61.98.92,1.47,15.05-8.58,28.47-18.61,39.16-29.75,3.56-3.71,6.71-7.42,9.43-11.11m13.09-43.17c-.48-.25-.96-.51-1.45-.76,2.3,12.4-1.48,26.58-11.81,41.18.45.37.9.74,1.35,1.11,10.42-14.72,14.24-29.03,11.91-41.53m-26.51-31.55c-.41-.16-.81-.33-1.22-.49,14.42,7.22,23.24,17.65,26,29.92.48.25.97.49,1.45.74-2.78-12.37-11.68-22.89-26.22-30.17m-7.53-3.28l-2.4-.92c2.49.9,4.85,1.88,7.09,2.93.4.16.81.32,1.21.48-1.88-.88-3.84-1.71-5.89-2.49M19.56,184.86c.24-.4.49-.8.74-1.2,1.85-5.91,4.85-12.02,9.03-18.2l-1.39,2.14c-5.35,9.01-5.45,9.19-8.38,17.26m6.4,38.72c.23-.51.45-1.02.68-1.53-8.27-10.27-10.7-23.01-6.8-36.85-.25.4-.5.81-.74,1.21-3.93,13.96-1.49,26.81,6.86,37.17m45.59,22.84c.1-.58.19-1.15.29-1.73-.37-.07-.74-.13-1.11-.2-19.91-3.67-34.44-11.23-43.15-21.32-.23.51-.45,1.03-.68,1.54,8.78,10.17,23.45,17.8,43.52,21.5.37.07.74.14,1.12.2"/>
      <path class="cls-3" d="m134.79,197.37c-.07-.53-.14-1.06-.2-1.59-16.59,3.47-33.22,4.41-48,2.21-.27-.04-.55-.08-.82-.13-.18.54-.36,1.08-.55,1.62.28.04.55.09.83.13,15.01,2.24,31.89,1.28,48.74-2.24m50.16-18.52c-.32-.44-.64-.88-.96-1.31-14.49,8.04-30.98,14.19-47.56,17.85.08.53.15,1.06.23,1.59,16.84-3.71,33.58-9.96,48.29-18.12m36.9-30.57c-.51-.29-1.01-.57-1.52-.85-1.95,2.64-4.2,5.29-6.75,7.94-7.64,7.96-17.24,15.14-28,21.27.33.43.66.86.99,1.3,10.92-6.23,20.67-13.51,28.43-21.6,2.59-2.69,4.87-5.39,6.85-8.06m9.51-31.34c-.55-.13-1.11-.25-1.66-.38,1.66,8.94-1.06,19.17-8.52,29.7.51.28,1.02.55,1.53.83,7.57-10.69,10.33-21.07,8.65-30.15m-19.24-22.91c-.46-.01-.91-.02-1.37-.03,10.4,5.21,16.76,12.73,18.75,21.57.55.12,1.11.24,1.66.36-2.02-8.98-8.48-16.62-19.04-21.91m-44.03-7.7c-.24.03-.47.05-.71.09,8.04-.29,15.84.14,23.16,1.36,7.32,1.22,13.68,3.15,19.03,5.67.45,0,.9.01,1.35.02-5.43-2.56-11.88-4.52-19.32-5.75-7.43-1.24-15.35-1.67-23.52-1.38m-18.23,1.77l-1.18.19c5.7-.92,11.36-1.52,16.92-1.79.23-.03.45-.06.68-.09-3.86.19-7.78.54-11.72,1.04l-4.7.66m-79.12,33.7c.25-.15.51-.3.76-.45,7.57-6.14,16.3-11.67,25.73-16.41l-2.73,1.4-3,1.62c-7.53,4.14-14.53,8.78-20.76,13.84m-24.9,32.72c.38-.32.76-.63,1.14-.94,2.36-7.53,7.29-15.48,14.94-23.44,2.55-2.65,5.31-5.22,8.27-7.69-.26.15-.52.31-.78.47-3,2.51-5.81,5.11-8.39,7.81-7.76,8.08-12.77,16.16-15.17,23.8m4.64,28.11c.35-.46.71-.91,1.07-1.37-5.97-7.41-7.71-16.6-4.9-26.58-.38.32-.77.64-1.15.96-2.85,10.13-1.08,19.46,4.98,26.99m33.1,16.58c.19-.54.38-1.08.57-1.62-.27-.05-.53-.09-.8-.14-14.35-2.65-24.84-8.1-31.12-15.37-.36.46-.71.92-1.06,1.38,6.37,7.39,17.02,12.92,31.6,15.61.27.05.54.1.81.15"/>
      <path class="cls-3" d="m130.69,155.42c-.03-.46-.05-.92-.08-1.37-8.8,1.84-17.62,2.34-25.45,1.17-.14-.02-.29-.04-.43-.07-.27.47-.53.94-.79,1.41.15.02.3.05.45.07,8.1,1.21,17.22.69,26.31-1.21m27.08-10c-.32-.35-.64-.7-.97-1.05-7.68,4.26-16.43,7.53-25.22,9.46.04.45.08.91.11,1.37,9.09-2,18.13-5.38,26.07-9.78m19.92-16.51c-.54-.17-1.08-.34-1.62-.51-1.03,1.4-2.23,2.8-3.58,4.21-4.05,4.22-9.14,8.03-14.85,11.28.33.34.66.69,1,1.03,5.9-3.36,11.16-7.3,15.35-11.66,1.4-1.45,2.63-2.91,3.7-4.35m5.13-16.92c-.59.01-1.19.03-1.79.05.88,4.74-.56,10.17-4.52,15.75.54.16,1.09.32,1.63.49,4.09-5.77,5.58-11.38,4.67-16.28m-10.39-12.37c-.48.15-.96.3-1.45.45,5.52,2.76,8.89,6.75,9.94,11.44.59-.02,1.19-.04,1.78-.06-1.09-4.85-4.58-8.97-10.28-11.83m-23.77-4.16c-.22.19-.45.39-.67.59,4.27-.15,8.4.07,12.28.72,3.88.65,7.25,1.67,10.09,3,.48-.16.95-.31,1.42-.46-2.93-1.38-6.42-2.44-10.43-3.11-4.01-.67-8.29-.9-12.7-.74m-28.01,5.66c.08.13.16.26.25.4,8.53-3.1,17.58-5.02,26.15-5.43.21-.2.42-.39.64-.58-8.86.43-18.21,2.42-27.03,5.62m-24.55,13.49c.35-.02.7-.03,1.05-.04,6.38-5.18,14.31-9.52,22.8-12.7-.09-.13-.19-.26-.28-.39-8.78,3.29-16.98,7.78-23.58,13.13m-13.44,17.66c.49-.21.99-.41,1.49-.62,1.25-3.99,3.87-8.21,7.92-12.43,1.35-1.41,2.82-2.77,4.38-4.08-.36.02-.72.04-1.07.06-1.62,1.35-3.13,2.76-4.53,4.21-4.19,4.36-6.89,8.72-8.19,12.85m2.51,15.18c.47-.37.94-.74,1.41-1.11-3.16-3.93-4.09-8.8-2.6-14.09-.5.21-1,.42-1.49.64-1.54,5.47-.58,10.51,2.69,14.57m17.87,8.95c.27-.47.55-.94.82-1.41-.14-.02-.28-.05-.42-.08-7.61-1.4-13.17-4.29-16.5-8.15-.47.37-.93.75-1.39,1.13,3.44,3.99,9.19,6.98,17.06,8.43.15.03.29.05.44.08"/>
      <path class="cls-3" d="m128.66,120.71c-15.12,7.12-29.09,15.94-41.72,26.07-.47.37-.93.75-1.39,1.13-12.53,10.23-23.7,21.75-33.31,34.17-.36.46-.71.92-1.06,1.38-9.5,12.49-17.43,25.86-23.59,39.73-.23.51-.45,1.03-.68,1.54-6.03,13.9-10.28,28.29-12.56,42.75-.08.53-.17,1.07-.24,1.6-2.12,14.47-2.26,29.01-.2,43.23.08.53.16,1.05.24,1.58,1.11,7.1,2.77,14.11,5,20.99,2.23,6.88,4.97,13.4,8.16,19.54.24.45.47.91.72,1.36,4.25,7.93,9.26,15.22,14.94,21.82l-3.81-4.59c-3.95-5.45-8.92-12.93-12.36-18.72-.24-.45-.48-.9-.72-1.36-3.2-6.15-5.94-12.67-8.17-19.55s-3.89-13.89-4.99-20.97c-.08-.52-.16-1.05-.24-1.57-2.04-14.2-1.87-28.7.3-43.11.08-.53.16-1.07.25-1.6,2.32-14.41,6.63-28.72,12.74-42.53.23-.51.45-1.02.68-1.53,6.24-13.78,14.25-27.05,23.84-39.43.35-.46.71-.91,1.07-1.37,9.71-12.31,20.98-23.71,33.62-33.8.47-.37.94-.74,1.41-1.11,12.74-10,26.83-18.68,42.07-25.65.28-.13.56-.26.85-.38,0,0,0,0,0,0-.28.13-.56.26-.84.39"/>
      <path class="cls-3" d="m128.55,120.17c-16.11,2.26-31.04,6.39-44.57,12.08-.5.21-1,.42-1.49.64-13.43,5.81-25.45,13.17-35.84,21.79-.38.32-.77.64-1.15.96-10.27,8.71-18.9,18.66-25.66,29.56-.25.4-.5.81-.74,1.21-5.4,8.93-9.56,18.47-12.35,28.47l1.4-4.73c2.74-8.86,6.58-17.33,11.42-25.29.24-.4.49-.8.74-1.2,6.73-10.77,15.32-20.59,25.54-29.15.38-.32.76-.63,1.14-.94,10.34-8.46,22.31-15.66,35.69-21.29.49-.21.99-.41,1.49-.62,13.48-5.51,28.35-9.45,44.4-11.51.3-.04.59-.08.89-.11,0,0,0,0,0,.01-.3.04-.6.08-.89.12"/>
      <path class="cls-3" d="m129.01,119.54c-11.94-3.46-22.84-4.85-32.56-4.38-.36.02-.72.04-1.07.06-9.63.61-18.08,3.08-25.2,7.22-.26.15-.52.31-.78.47-2.08,1.26-4.04,2.67-5.88,4.21l2.06-1.7.04-.04c1.61-1.31,3.32-2.51,5.12-3.59.25-.15.51-.3.76-.45,6.94-3.99,15.19-6.3,24.61-6.73.35-.02.7-.03,1.05-.04,9.51-.3,20.18,1.29,31.88,4.94.22.07.43.14.65.2,0,0,0,0-.01.01-.22-.07-.44-.13-.66-.19"/>
      <path class="cls-3" d="m129.89,119.04c-4.07-7.9-7.38-13.59-9.92-17.17-.09-.13-.19-.26-.28-.39-2.33-3.22-3.99-4.58-4.99-4.19l1.74-.64c.76-.3,2.16,1.17,4.22,4.47.08.13.16.26.25.4,2.25,3.69,5.25,9.49,9.01,17.5.07.15.14.3.21.45,0,0-.01,0-.02,0-.08-.15-.15-.29-.23-.44"/>
      <path class="cls-3" d="m130.89,118.83c4.98-9.83,10.43-17.39,16.16-22.74.21-.2.42-.39.64-.58,5.75-5.19,11.78-8.17,17.91-9.02.23-.03.45-.06.68-.09.59-.07,1.18-.11,1.77-.14l2.3-.1c-.75.02-1.51.08-2.26.16-.24.03-.47.05-.71.09-6.38.86-12.68,3.85-18.72,9.05-.22.19-.45.39-.67.59-6.02,5.36-11.77,12.93-17.08,22.78-.1.18-.2.36-.29.55,0,0-.01,0-.02,0,.09-.18.18-.37.28-.55"/>
      <path class="cls-3" d="m131.76,118.96c12.78-8.6,25.76-14.97,38.62-19.19.48-.16.95-.31,1.42-.46,12.84-4.07,25.55-6,37.78-5.88.45,0,.9.01,1.35.02,12.2.26,23.92,2.57,34.83,6.82.4.16.81.32,1.21.48,1.98.8,3.93,1.67,5.85,2.59l3.41,1.67c-2.49-1.27-5.04-2.42-7.63-3.48-.41-.16-.81-.33-1.22-.49-11.04-4.31-22.91-6.69-35.27-7.03-.46-.01-.91-.02-1.37-.03-12.4-.19-25.28,1.65-38.31,5.62-.48.15-.96.3-1.45.45-13.04,4.13-26.22,10.4-39.21,18.9-.24.16-.48.32-.72.47,0,0,0,0-.01,0,.24-.16.47-.32.71-.48"/>
      <path class="cls-3" d="m132.15,119.4c16.32-4.67,32.71-7.25,48.79-7.89.59-.02,1.19-.04,1.78-.06,16.05-.5,31.78.93,46.78,4.12.55.12,1.11.24,1.66.36,14.95,3.32,29.15,8.39,42.23,15.04.48.25.97.49,1.45.74,12.99,6.77,24.83,15.11,35.13,24.86.38.36.76.72,1.14,1.09,10.19,9.85,18.82,21.11,25.49,33.59.25.46.49.92.73,1.39,3.27,6.29,6.04,12.88,8.28,19.76,1.23,3.8,2.28,7.62,3.15,11.44l1.32,6.41c-1-5.36-2.36-10.71-4.09-16.03-2.23-6.88-5.01-13.48-8.28-19.78-.24-.47-.49-.93-.73-1.39-6.68-12.51-15.32-23.81-25.52-33.74-.38-.37-.76-.73-1.14-1.09-10.31-9.82-22.18-18.25-35.19-25.13-.48-.25-.96-.51-1.45-.76-13.1-6.76-27.33-11.95-42.3-15.41-.55-.13-1.11-.25-1.66-.38-15.03-3.33-30.78-4.91-46.87-4.57-.59.01-1.19.03-1.79.05-16.11.48-32.54,2.88-48.89,7.38-.3.08-.6.17-.91.25,0,0,0,0,0,0,.3-.09.6-.17.9-.26"/>
      <path class="cls-3" d="m131.99,120c14.84.77,29.81,3.45,44.54,7.78.54.16,1.09.32,1.63.49,14.71,4.45,29.18,10.54,43.02,17.99.51.28,1.02.55,1.53.83,13.8,7.55,26.97,16.45,39.14,26.43.45.37.9.74,1.35,1.11,12.1,10.06,23.19,21.19,32.9,33.12.36.44.72.88,1.07,1.33,9.61,11.98,17.83,24.76,24.29,38.04.24.49.48.98.71,1.48,3.17,6.66,5.89,13.45,8.12,20.33,2.23,6.88,3.91,13.62,5.04,20.2.08.49.16.97.24,1.46,2.11,13.1,2.08,25.53.1,37.02-.07.43-.15.85-.23,1.27-2.12,11.43-6.19,21.92-11.99,31.23-.21.34-.43.69-.65,1.03-.51.79-1.03,1.58-1.57,2.35l-2.1,2.93c.86-1.2,1.69-2.42,2.49-3.66.22-.34.43-.67.64-1.01,5.72-9.18,9.7-19.57,11.76-30.91.08-.42.15-.84.22-1.26,1.92-11.42,1.91-23.78-.22-36.85-.08-.48-.16-.97-.25-1.45-1.15-6.56-2.82-13.3-5.06-20.18s-4.95-13.67-8.11-20.35c-.23-.49-.47-.99-.71-1.48-6.44-13.32-14.62-26.14-24.17-38.21-.35-.45-.71-.89-1.06-1.33-9.65-12.01-20.66-23.24-32.67-33.43-.44-.38-.89-.75-1.34-1.13-12.08-10.11-25.14-19.16-38.83-26.87-.51-.29-1.01-.57-1.52-.85-13.73-7.61-28.06-13.87-42.64-18.51-.54-.17-1.08-.34-1.62-.51-14.6-4.52-29.42-7.4-44.11-8.38-.27-.02-.54-.04-.81-.05,0,0,0,0,0-.01.27.01.55.03.82.04"/>
      <path class="cls-3" d="m131.29,120.6c8.53,6.15,17.4,14.04,26.37,23.29.33.34.66.69,1,1.03,8.98,9.35,18.04,20.05,26.94,31.71.33.43.66.86.99,1.3,8.89,11.74,17.62,24.43,25.93,37.71.31.49.61.98.92,1.47,8.28,13.32,16.14,27.21,23.32,41.29.27.52.53,1.04.79,1.56,7.14,14.09,13.6,28.37,19.13,42.44.2.52.41,1.04.61,1.56,2.73,7.03,5.23,14.01,7.47,20.89,2.23,6.88,4.13,13.43,5.7,19.64.12.46.23.92.34,1.37,3.04,12.31,4.77,23.23,5.26,32.62.02.35.03.69.05,1.03.4,9.27-.43,17.01-2.42,23.06-.07.22-.15.44-.23.66-2.03,5.81-5.18,10-9.36,12.41l-1.81,1.02c4.06-2.27,7.07-6.38,8.96-12.19.07-.22.14-.43.21-.65,1.82-5.95,2.5-13.6,1.99-22.81-.02-.34-.04-.68-.06-1.03-.6-9.33-2.41-20.2-5.49-32.49-.11-.45-.23-.91-.35-1.37-1.59-6.19-3.49-12.74-5.73-19.62s-4.72-13.86-7.44-20.9c-.2-.52-.4-1.04-.61-1.56-5.49-14.1-11.87-28.42-18.9-42.57-.26-.52-.52-1.05-.78-1.57-7.07-14.14-14.78-28.11-22.89-41.53-.3-.5-.6-.99-.9-1.49-8.14-13.38-16.66-26.18-25.33-38.05-.32-.44-.64-.88-.96-1.31-8.68-11.79-17.5-22.62-26.22-32.12-.32-.35-.64-.7-.97-1.05-8.71-9.39-17.31-17.44-25.55-23.75-.15-.12-.3-.23-.46-.35,0,0,.01,0,.02,0,.16.11.31.23.47.34"/>
      <path class="cls-3" d="m130.32,120.97c-.19,9.48.26,20.58,1.27,32.86.04.45.08.91.11,1.37,1.05,12.37,2.65,25.91,4.73,40.18.08.53.15,1.06.23,1.59,2.11,14.32,4.7,29.36,7.67,44.67.11.57.22,1.13.33,1.7,3,15.33,6.4,30.92,10.1,46.33.14.57.27,1.14.41,1.71,3.72,15.4,7.75,30.6,12,45.16.16.54.31,1.08.47,1.61,2.13,7.26,4.32,14.36,6.56,21.23s4.44,13.31,6.61,19.29c.16.44.32.88.48,1.32,4.32,11.82,8.48,21.82,12.39,29.9.14.3.29.6.43.89,3.89,7.94,7.52,13.98,10.81,18.01.12.15.24.3.36.44,3.26,3.89,6.18,5.78,8.66,5.59.09,0,.18-.02.27-.03.1-.01.19-.03.29-.05l-1.87.4c-.09.02-.17.03-.26.05-.1.01-.2.03-.3.04-2.73.25-5.88-1.59-9.34-5.44-.13-.14-.26-.29-.39-.43-3.49-3.99-7.29-9.99-11.3-17.91-.15-.29-.3-.59-.45-.89-4.03-8.06-8.28-18.03-12.65-29.84-.16-.44-.32-.88-.48-1.32-2.19-5.97-4.41-12.4-6.64-19.28-2.23-6.88-4.41-13.98-6.52-21.24-.16-.54-.31-1.07-.47-1.61-4.2-14.58-8.14-29.8-11.73-45.22-.13-.57-.27-1.14-.4-1.71-3.57-15.44-6.79-31.06-9.6-46.44-.1-.57-.21-1.14-.31-1.7-2.78-15.35-5.13-30.44-6.99-44.82-.07-.53-.14-1.06-.2-1.59-1.82-14.32-3.15-27.93-3.9-40.36-.03-.46-.05-.92-.08-1.37-.71-12.35-.84-23.52-.33-33.06,0-.18.02-.35.03-.53,0,0,.01,0,.02,0,0,.17,0,.35-.01.52"/>
    </g>
  </g>
  <polygon class="cls-3" points="202.37 .25 233.65 31.54 270.15 31.28 239.23 .36 202.37 .25"/>
  <polygon class="cls-3" points="247.17 .25 278.46 31.54 314.96 31.28 284.04 .36 247.17 .25"/>
  <polygon class="cls-3" points="292.81 .25 324.09 31.54 360.59 31.28 329.67 .36 292.81 .25"/>
  <polygon class="cls-2" points="44.96 500.29 .81 456.14 .38 500.24 44.96 500.29"/>
  <polygon class="cls-1" points="333.5 501.61 60.24 501.61 32.4 473.09 324.28 473.14 370.45 427.71 370.45 464.66 333.5 501.61"/>
</svg>